<?xml version="1.0" standalone="no"?>
<!DOCTYPE svg PUBLIC "-//W3C//DTD SVG 20010904//EN"
 "http://www.w3.org/TR/2001/REC-SVG-20010904/DTD/svg10.dtd">
<svg version="1.0" xmlns="http://www.w3.org/2000/svg"
 width="801.000000pt" height="311.000000pt" viewBox="0 0 801.000000 311.000000"
 preserveAspectRatio="xMidYMid meet">

<g transform="translate(0.000000,311.000000) scale(0.100000,-0.100000)"
fill="#000000" stroke="none">
<path d="M1308 2064 c-53 -50 -93 -57 -141 -25 -16 10 -38 16 -48 14 -36 -10
-33 -47 12 -140 l43 -88 1 -140 c0 -77 -3 -147 -6 -155 -5 -13 -28 -14 -147
-10 -122 4 -144 8 -169 26 -41 31 -68 74 -109 180 -41 106 -60 117 -82 51 -17
-53 -26 -165 -18 -220 6 -38 12 -48 39 -60 53 -25 143 -38 315 -44 188 -7 171
12 147 -157 -12 -88 -47 -206 -60 -206 -2 0 -36 16 -77 36 -80 39 -126 41
-191 8 -78 -40 -147 -151 -147 -240 0 -58 22 -94 73 -121 136 -70 261 1 332
190 10 26 22 50 27 53 5 3 84 -19 176 -50 92 -30 244 -78 337 -106 162 -49
174 -52 260 -47 155 7 238 61 285 183 47 120 23 295 -52 380 -54 61 -95 35
-77 -47 6 -24 9 -75 7 -114 -3 -60 -9 -79 -42 -133 -40 -66 -115 -130 -175
-151 -93 -31 -326 7 -554 91 -75 27 -139 53 -141 57 -3 4 8 45 24 91 15 47 36
128 46 181 l19 96 170 12 c265 18 376 47 405 106 8 17 16 67 18 112 3 71 1 89
-18 125 -38 74 -66 78 -75 11 -12 -84 -41 -137 -133 -241 -29 -33 -70 -42
-219 -49 -96 -4 -133 -3 -133 5 0 7 9 84 20 173 21 162 33 207 69 257 10 15
27 51 37 79 26 74 11 83 -48 27z m-281 -1015 l28 -11 -53 -49 c-56 -52 -98
-63 -122 -34 -15 19 -6 59 20 85 23 23 81 27 127 9z"/>
<path d="M2880 2060 c-12 -29 -15 -30 -75 -30 l-63 0 -4 -45 -3 -45 42 0 c23
0 44 -3 46 -7 2 -5 -24 -75 -59 -158 -35 -82 -64 -150 -64 -151 0 -4 63 -24
75 -24 7 0 41 68 75 150 35 83 67 150 71 150 4 0 10 -8 14 -17 3 -10 29 -79
57 -153 28 -74 52 -136 53 -138 1 -1 20 6 43 15 l40 18 -54 144 c-30 79 -54
150 -54 157 0 9 12 14 35 14 23 0 35 5 35 14 0 7 3 28 6 45 l7 31 -67 0 c-57
0 -66 2 -66 18 0 18 -37 42 -64 42 -8 0 -19 -13 -26 -30z"/>
<path d="M6470 2060 c-12 -29 -15 -30 -76 -30 l-64 0 0 -45 0 -45 45 0 c25 0
45 -2 45 -5 0 -5 -65 -163 -105 -255 l-24 -55 30 -13 c17 -7 38 -12 46 -10 8
2 41 66 77 150 34 81 64 149 67 153 4 3 28 -52 54 -122 26 -71 53 -142 61
-160 l13 -32 41 16 c30 12 39 20 34 32 -26 66 -104 283 -104 291 0 5 15 10 34
10 30 0 34 4 40 31 11 59 11 59 -59 59 -56 0 -65 2 -65 18 0 18 -37 42 -64 42
-8 0 -19 -13 -26 -30z"/>
<path d="M3197 2064 c-4 -4 -7 -60 -7 -125 0 -95 -3 -118 -15 -123 -9 -3 -15
-19 -15 -41 0 -24 4 -35 15 -35 19 0 19 -19 0 -44 -8 -11 -15 -37 -15 -58 l0
-38 155 0 155 0 0 45 c0 25 0 48 0 52 0 3 -39 7 -87 7 -75 1 -88 4 -91 19 -3
13 3 17 22 17 22 0 26 4 26 30 0 17 0 33 0 38 0 4 -11 8 -24 10 -25 3 -25 4
-28 125 l-3 122 -40 3 c-23 2 -44 0 -48 -4z"/>
<path d="M3697 1983 l-87 -88 0 83 0 82 -45 0 -45 0 -1 -167 c-1 -93 -1 -181
-2 -198 -1 -96 -1 -95 48 -95 l45 0 0 83 c0 45 4 88 9 96 9 14 14 8 78 -99 36
-59 65 -80 109 -80 26 0 51 7 65 19 21 17 22 20 9 52 -18 47 -25 52 -48 40
-14 -7 -24 -7 -35 2 -18 14 -87 122 -87 136 0 5 32 40 70 77 39 37 70 72 70
79 0 10 -51 65 -61 65 -2 0 -43 -39 -92 -87z"/>
<path d="M4577 2048 c-14 -21 -16 -21 -16 -4 -1 16 -6 18 -38 12 -21 -3 -44
-6 -50 -6 -20 0 -18 -399 1 -426 13 -17 30 -19 171 -22 131 -3 160 -1 181 13
l25 16 -3 205 c-4 249 6 234 -149 234 -99 0 -108 -2 -122 -22z m173 -203 c0
-69 0 -128 0 -132 0 -5 -43 -9 -95 -11 l-95 -3 0 136 0 135 95 0 95 0 0 -125z"/>
<path d="M5127 2064 c-4 -4 -7 -60 -7 -125 0 -95 -3 -118 -15 -123 -9 -3 -15
-19 -15 -41 0 -24 4 -35 15 -35 19 0 19 -14 1 -43 -8 -12 -16 -38 -18 -57 l-3
-35 155 0 155 0 3 51 3 50 -88 0 c-74 -1 -88 2 -91 16 -2 11 5 18 20 20 19 2
24 10 26 41 3 34 1 37 -22 37 l-25 0 -3 123 -3 122 -40 3 c-23 2 -44 0 -48 -4z"/>
<path d="M5561 2048 c-19 -19 -21 -20 -21 -4 0 16 -6 18 -37 12 -21 -3 -44 -6
-50 -6 -20 0 -18 -399 1 -426 13 -17 28 -19 179 -19 124 0 168 3 180 14 15 12
17 39 17 205 0 253 7 240 -137 244 -104 2 -113 1 -132 -20z m174 -213 l0 -130
-97 -3 -98 -3 0 136 0 136 98 -3 97 -3 0 -130z"/>
<path d="M6789 2068 c0 -2 -2 -57 -5 -122 -2 -66 -9 -123 -14 -126 -6 -4 -13
-23 -17 -43 -4 -30 -3 -37 11 -37 17 0 23 -36 6 -42 -5 -1 -13 -24 -16 -50
l-7 -48 151 0 c83 0 153 3 155 8 3 4 7 27 8 52 l4 44 -90 1 c-77 0 -90 2 -93
18 -3 12 3 17 21 17 17 0 27 7 31 23 12 46 8 57 -24 57 l-30 0 0 125 0 125
-45 0 c-25 0 -45 -1 -46 -2z"/>
<path d="M2367 2053 c-4 -3 -7 -24 -7 -45 l0 -38 60 0 c57 0 78 -11 45 -24
-12 -4 -15 -29 -15 -135 0 -143 13 -190 57 -210 40 -18 52 -13 63 30 9 34 9
44 -5 59 -13 14 -15 39 -13 146 l3 129 51 3 c49 3 52 5 58 34 12 61 19 58
-142 58 -82 0 -152 -3 -155 -7z"/>
<path d="M4120 2046 c0 -7 -3 -28 -6 -45 l-6 -31 68 0 c60 -1 67 -2 52 -14
-16 -12 -18 -32 -18 -160 l0 -148 29 -29 c17 -16 40 -29 54 -29 22 0 26 6 32
39 5 28 2 46 -10 64 -13 20 -15 48 -13 148 l3 124 55 5 55 5 3 43 3 42 -150 0
c-122 0 -151 -3 -151 -14z"/>
<path d="M5900 2034 c-6 -14 -10 -37 -10 -51 0 -22 4 -25 25 -21 36 7 40 -7 6
-22 -34 -14 -41 -33 -41 -115 1 -131 87 -225 206 -225 59 0 94 13 134 49 l40
36 -26 33 -26 32 -29 -24 c-68 -57 -155 -38 -197 44 -25 49 -24 84 7 154 l17
39 79 -2 c56 -1 83 -6 91 -16 6 -8 28 -15 48 -15 30 0 36 4 36 20 0 29 -26 76
-52 94 -18 13 -52 16 -160 16 l-138 0 -10 -26z"/>
<path d="M2915 1722 c-11 -10 -31 -30 -44 -45 l-24 -27 23 -25 24 -25 43 42
c48 47 51 58 25 81 -23 21 -22 21 -47 -1z"/>
<path d="M6480 1695 l-44 -45 24 -25 24 -25 43 42 c24 23 43 47 43 54 0 10
-31 44 -41 44 -3 0 -25 -20 -49 -45z"/>
<path d="M3025 1150 c-3 -5 -26 -10 -51 -10 -40 0 -44 -2 -44 -24 0 -14 5 -28
10 -31 6 -3 10 -33 10 -65 0 -32 -4 -62 -10 -65 -16 -10 -12 -55 5 -55 23 0
55 37 55 64 0 17 7 25 23 28 47 8 66 -2 73 -38 6 -32 28 -54 53 -54 14 0 14
47 1 55 -5 3 -10 33 -10 65 0 32 5 62 10 65 6 3 10 17 10 31 0 22 -4 24 -44
24 -25 0 -48 5 -51 10 -3 6 -12 10 -20 10 -8 0 -17 -4 -20 -10z m71 -82 c3
-20 -10 -25 -56 -24 -29 1 -36 5 -38 24 -3 22 -1 23 44 20 35 -2 48 -7 50 -20z"/>
<path d="M4065 1150 c-3 -5 -26 -10 -51 -10 -40 0 -44 -2 -44 -24 0 -14 5 -28
10 -31 6 -3 10 -33 10 -65 0 -32 -4 -62 -10 -65 -15 -9 -12 -55 3 -55 25 0 48
25 51 55 3 25 8 31 37 35 46 8 59 2 59 -26 0 -27 32 -64 55 -64 17 0 21 45 5
55 -5 3 -10 35 -10 71 0 36 4 64 10 64 6 0 10 11 10 25 0 23 -4 25 -44 25 -25
0 -48 5 -51 10 -3 6 -12 10 -20 10 -8 0 -17 -4 -20 -10z m65 -85 c0 -23 -4
-25 -44 -25 -35 0 -45 4 -49 19 -7 27 0 31 50 31 39 0 43 -2 43 -25z"/>
<path d="M6175 1150 c-3 -5 -26 -10 -51 -10 -40 0 -44 -2 -44 -25 0 -14 5 -25
10 -25 6 0 10 -28 10 -64 0 -36 -4 -68 -10 -71 -16 -10 -12 -55 5 -55 23 0 55
37 55 65 0 23 4 25 44 25 45 0 56 -10 56 -50 0 -19 27 -40 50 -40 9 0 10 10 5
33 -14 66 -17 139 -6 150 6 6 11 21 11 34 0 21 -5 23 -45 23 -25 0 -45 5 -45
10 0 6 -9 10 -19 10 -11 0 -23 -4 -26 -10z m70 -85 c0 -16 -7 -20 -47 -21 -45
-1 -48 0 -48 23 0 23 3 24 48 21 39 -2 47 -6 47 -23z"/>
<path d="M2580 1096 c0 -25 -4 -48 -10 -51 -5 -3 -10 -17 -10 -31 0 -13 5 -24
10 -24 6 0 10 -21 10 -46 0 -41 2 -45 23 -42 18 2 23 10 25 46 4 51 14 54 30
8 9 -24 22 -38 44 -45 51 -18 68 -14 68 14 0 19 -5 25 -23 25 -22 0 -47 16
-47 31 0 4 12 10 27 14 37 9 43 20 43 88 l0 57 -95 0 -95 0 0 -44z m138 -27
c-2 -18 -11 -22 -45 -24 -39 -2 -43 0 -43 21 0 22 4 24 46 24 41 0 45 -2 42
-21z"/>
<path d="M3320 1116 c0 -14 5 -28 10 -31 6 -3 10 -33 10 -65 0 -32 -4 -62 -10
-65 -5 -3 -10 -17 -10 -29 0 -22 5 -24 68 -28 37 -3 97 -3 135 0 62 4 67 6 67
28 0 12 -4 26 -10 29 -5 3 -10 35 -10 71 0 36 4 64 10 64 6 0 10 11 10 25 0
17 -5 25 -17 25 -40 0 -48 -17 -52 -105 -3 -75 -5 -85 -21 -85 -15 0 -19 9
-22 48 -3 40 -6 47 -25 50 -20 3 -22 -2 -25 -45 -2 -36 -7 -49 -20 -51 -16 -3
-18 5 -18 70 0 80 -16 118 -51 118 -14 0 -19 -7 -19 -24z"/>
<path d="M4360 1020 l0 -120 25 0 c23 0 24 3 27 71 3 63 6 74 28 90 14 10 37
21 53 25 l27 6 0 -76 c0 -63 4 -80 20 -96 28 -28 50 -26 50 4 0 14 -4 28 -10
31 -5 3 -10 46 -10 96 l0 89 -42 0 c-24 -1 -60 -7 -80 -14 -32 -12 -38 -12
-38 0 0 8 -10 14 -25 14 l-25 0 0 -120z"/>
<path d="M4755 1020 l0 -120 61 0 c71 0 120 15 134 40 6 10 10 59 10 109 l0
91 -102 0 -103 0 0 -120z m155 11 c0 -68 -13 -84 -62 -79 -32 3 -33 4 -36 57
-4 75 0 81 53 81 l45 0 0 -59z"/>
<path d="M5360 1096 c0 -25 -4 -48 -10 -51 -5 -3 -10 -17 -10 -31 0 -13 5 -24
10 -24 6 0 10 -21 10 -46 0 -41 2 -45 23 -42 18 2 23 10 25 46 3 46 18 56 28
18 8 -34 35 -56 78 -63 33 -5 36 -4 36 19 0 18 -7 26 -32 33 -43 13 -46 32 -7
43 26 6 35 15 41 41 5 18 7 47 5 64 l-3 32 -97 3 -97 3 0 -45z m145 -31 c0
-17 -6 -20 -45 -19 -38 1 -45 4 -48 23 -3 21 0 22 45 19 40 -3 48 -6 48 -23z"/>
<path d="M5710 1115 c0 -14 5 -25 10 -25 6 0 10 -9 10 -19 0 -11 -4 -23 -10
-26 -12 -7 -14 -55 -2 -55 4 0 14 -16 21 -35 15 -41 58 -58 136 -53 43 3 50 6
53 26 3 21 0 22 -60 22 -58 0 -88 11 -88 31 0 5 24 9 53 11 45 3 52 6 55 26 4
23 2 24 -63 26 -33 1 -41 5 -43 24 -3 21 0 22 72 22 74 0 76 1 76 25 l0 25
-110 0 -110 0 0 -25z"/>
<path d="M6490 1051 c0 -50 -4 -93 -10 -96 -5 -3 -10 -17 -10 -31 0 -23 2 -24
80 -24 67 0 83 3 100 20 28 28 26 50 -4 50 -14 0 -28 -4 -31 -10 -3 -5 -22
-10 -41 -10 l-34 0 0 95 c0 95 0 95 -25 95 -25 0 -25 -1 -25 -89z"/>
</g>
</svg>
